<svg xmlns="http://www.w3.org/2000/svg"><symbol id="icon_arrow" viewBox="0 0 28 29"><path d="M0 14.5h25.5M13 2l12.5 12.5L13 27" stroke-width="3"/></symbol><symbol id="icon_arrow2" viewBox="0 0 28 16"><path fill-rule="evenodd" clip-rule="evenodd" d="M19.122.469a1.525 1.525 0 012.2 0l6.221 6.399h.001a1.634 1.634 0 010 2.263v.001l-6.222 6.4a1.525 1.525 0 01-2.2 0 1.632 1.632 0 010-2.263L22.69 9.6H1.556C.696 9.6 0 8.884 0 8c0-.884.696-1.6 1.556-1.6h21.133l-3.567-3.669a1.632 1.632 0 010-2.262z"/></symbol><symbol id="icon_burger" viewBox="0 0 25 16"><rect width="25" height="2" rx="1"/><rect y="7" width="25" height="2" rx="1"/><rect y="14" width="25" height="2" rx="1"/></symbol><symbol id="icon_check" viewBox="0 0 25 14"><path d="M18.75 1.469L17.28 0l-6.603 6.604 1.469 1.469 6.604-6.604zM23.166 0l-11.02 11.02L7.79 6.678 6.323 8.146l5.822 5.823 12.5-12.5L23.166 0zM.426 8.146l5.824 5.823L7.718 12.5 1.906 6.677.426 8.146z"/></symbol><symbol id="icon_close" viewBox="0 0 20 19"><path stroke-width="2" stroke-linecap="round" d="M2.414 2L18 17.586M17.586 2L2 17.586"/></symbol><symbol id="icon_menu" viewBox="0 0 20 20"><path fill-rule="evenodd" clip-rule="evenodd" d="M18 4a2 2 0 100-4 2 2 0 000 4zm-8 0a2 2 0 100-4 2 2 0 000 4zM2 4a2 2 0 100-4 2 2 0 000 4zm16 8a2 2 0 100-4 2 2 0 000 4zm-8 0a2 2 0 100-4 2 2 0 000 4zm-8 0a2 2 0 100-4 2 2 0 000 4zm16 8a2 2 0 100-4 2 2 0 000 4zm-8 0a2 2 0 100-4 2 2 0 000 4zm-8 0a2 2 0 100-4 2 2 0 000 4z"/></symbol><symbol id="icon_search" viewBox="0 0 19 19"><ellipse cx="7.641" cy="7.75" rx="6.641" ry="6.75" stroke-width="2"/><path transform="scale(.9918 1.00813) rotate(45 -9.13 20.358)" stroke-width="2" stroke-linecap="round" d="M1-1h7.09"/></symbol><symbol id="icon_star" viewBox="0 0 15 15"><path fill-rule="evenodd" clip-rule="evenodd" d="M7.928.322l1.606 4.985 5.02.061c.431.005.61.582.263.852l-4.026 3.142 1.495 5.022c.129.432-.339.789-.691.527L7.5 11.867 3.405 14.91c-.352.262-.82-.095-.691-.526L4.209 9.36.183 6.22c-.347-.27-.168-.847.264-.853l5.019-.06L7.072.32a.445.445 0 01.856.001z"/></symbol></svg>